<svg id="Layer_2" data-name="Layer 2" xmlns="http://www.w3.org/2000/svg" viewBox="0 0 49 49"><defs><style>.cls-1{fill:#0d6efd;}.cls-1,.cls-2{stroke:#0d6efd;stroke-miterlimit:10;}.cls-2{fill:#fff;}</style></defs><path class="cls-1" d="M267.18,255.7c-3.17,14.35-5.68,18.36-7.61,18.3-3.9-.12-5.49-16.74-9.65-16.74s-5.76,16.62-9.65,16.74c-2.12.06-4.93-4.75-8.53-22.66a12.57,12.57,0,0,1-1.44-1.27c5.44-6.66,9.93-8.29,13.37-8.16C252.41,242.22,257.86,254,267.18,255.7Z" transform="translate(-225.5 -225.5)"/><path class="cls-2" d="M268.09,251.34c-.31,1.55-.61,3-.91,4.36-9.32-1.75-14.77-13.48-23.51-13.79-3.44-.13-7.93,1.5-13.37,8.16a15.13,15.13,0,0,1-2.39-17.89c4.49-7.65,14.75-7.36,18.42-3.66,2.3,2.32,2.13,6.09,3.78,6.26s2.26-4,5.24-6.29c4-3,12.47-2.73,16.57,3.69A14.54,14.54,0,0,1,268.09,251.34Z" transform="translate(-225.5 -225.5)"/></svg>